<?xml version="1.0" standalone="no"?>
<!DOCTYPE svg PUBLIC "-//W3C//DTD SVG 20010904//EN"
 "http://www.w3.org/TR/2001/REC-SVG-20010904/DTD/svg10.dtd">
<svg version="1.0" xmlns="http://www.w3.org/2000/svg"
 width="400.000000pt" height="400.000000pt" viewBox="0 0 400.000000 400.000000"
 preserveAspectRatio="xMidYMid meet">

<g transform="translate(0.000000,400.000000) scale(0.100000,-0.100000)"
fill="#000000" stroke="none">
<path d="M461 3984 c0 -11 3 -14 6 -6 3 7 2 16 -1 19 -3 4 -6 -2 -5 -13z"/>
<path d="M1834 3857 c-8 -5 -21 -6 -28 -4 -14 6 -114 -20 -131 -33 -5 -4 -26
-11 -45 -15 -19 -4 -51 -16 -70 -27 -19 -12 -60 -34 -90 -51 -30 -16 -71 -45
-90 -63 -20 -19 -40 -34 -46 -34 -14 0 -144 -127 -144 -140 0 -6 4 -8 10 -5 5
3 7 0 4 -9 -3 -8 -11 -13 -18 -10 -15 6 -49 -39 -91 -120 -17 -34 -39 -74 -47
-91 -28 -52 -45 -98 -67 -175 -47 -166 -64 -227 -73 -265 -5 -22 -13 -58 -19
-80 -21 -89 -32 -164 -34 -245 -1 -47 -5 -112 -8 -145 -6 -57 -6 -58 6 -23 14
43 27 59 27 34 0 -48 -42 -192 -61 -208 -15 -12 -18 -24 -14 -45 5 -21 4 -24
-4 -13 -12 17 -7 30 -44 -125 -15 -61 -27 -118 -27 -128 0 -10 -7 -29 -16 -43
-9 -13 -14 -27 -10 -31 3 -3 6 -1 6 5 0 7 5 12 11 12 6 0 9 -8 7 -17 -2 -10
-10 -18 -18 -18 -21 0 -40 -94 -25 -127 5 -13 3 -18 -9 -18 -10 0 -16 -8 -16
-22 0 -19 -8 -67 -40 -233 -30 -157 -65 -290 -161 -610 -43 -143 -97 -336
-120 -430 -23 -93 -50 -194 -60 -224 -11 -30 -19 -60 -19 -68 0 -10 36 -13
183 -12 100 0 176 3 168 6 -8 3 -30 16 -49 29 -19 13 -46 24 -59 24 -24 0 -25
1 -18 53 4 28 14 64 21 79 8 15 14 38 14 52 0 14 5 28 11 32 6 3 9 14 6 24 -3
11 3 29 11 42 22 30 72 136 72 151 0 7 18 47 40 90 22 43 40 85 40 92 0 8 9
19 19 25 12 6 17 17 14 29 -2 10 2 32 11 49 18 35 41 103 51 149 3 18 16 44
28 59 12 15 31 46 42 68 16 33 34 48 100 83 44 23 96 47 115 54 19 6 49 22 67
35 17 13 41 24 53 24 12 0 48 15 81 33 43 23 61 29 67 20 5 -8 13 -9 22 -3 24
16 34 11 18 -7 -8 -10 -16 -25 -16 -33 -2 -29 -19 -95 -39 -155 -45 -131 -74
-253 -113 -470 -12 -66 -28 -149 -36 -183 -16 -70 -33 -227 -29 -282 1 -19 7
-53 13 -75 6 -22 14 -52 17 -67 l5 -28 95 0 c111 0 104 -13 80 144 -21 137
-19 164 21 391 19 110 42 241 49 290 18 108 36 186 77 320 17 55 33 111 35
125 3 14 9 30 14 36 4 5 6 20 3 31 -8 29 40 112 50 87 6 -16 8 -16 25 2 10 11
21 32 25 47 3 15 16 35 27 45 11 9 33 40 50 68 30 53 59 85 59 66 0 -6 -5 -14
-10 -17 -8 -5 -7 -11 0 -20 7 -8 9 -18 6 -24 -9 -14 4 -41 21 -41 12 0 14 -7
10 -30 -4 -16 -2 -32 3 -35 8 -5 66 -102 98 -165 7 -14 19 -36 27 -50 20 -35
5 -43 -41 -21 -112 54 -194 27 -194 -65 0 -16 -5 -24 -12 -22 -13 5 -47 143
-48 192 0 23 -3 27 -12 18 -9 -9 -8 -35 6 -114 10 -57 21 -123 25 -148 8 -55
48 -140 65 -140 11 0 31 -38 49 -93 9 -24 50 -41 81 -33 14 3 44 25 67 49 23
23 38 36 34 28 -14 -24 -14 -93 1 -241 7 -80 16 -167 18 -195 6 -71 7 -73 15
-45 4 15 14 24 24 24 21 -2 21 8 3 141 -12 93 -6 298 9 313 3 3 -2 13 -11 23
-10 12 -14 32 -12 65 3 48 4 49 16 21 7 -16 17 -25 23 -21 8 4 8 9 0 17 -6 6
-11 19 -11 30 0 16 5 18 33 11 17 -4 44 -8 59 -8 46 -2 32 -21 -19 -26 -58 -6
-43 -23 19 -22 37 1 47 -5 97 -56 54 -55 112 -92 144 -92 40 0 102 91 114 164
3 23 11 48 19 56 19 22 64 167 64 206 0 18 4 35 9 39 16 9 39 -94 45 -195 3
-55 14 -122 25 -159 12 -35 21 -68 21 -73 0 -6 7 -24 15 -41 8 -18 35 -95 60
-172 25 -77 55 -158 65 -180 34 -71 50 -164 49 -290 0 -66 -4 -141 -8 -168
l-8 -47 79 0 c67 0 78 2 80 18 0 9 2 22 3 27 2 6 4 15 5 20 1 6 2 14 1 19 -1
4 3 14 10 22 15 18 13 153 -5 244 -8 41 -20 113 -26 158 -6 46 -15 94 -20 105
-5 12 -23 68 -40 125 -38 123 -65 188 -83 195 -7 3 -19 24 -26 48 -7 24 -24
72 -37 107 -13 34 -24 72 -24 84 0 12 -7 29 -14 37 -19 21 -31 141 -16 161 9
13 12 13 23 -1 11 -15 15 -14 40 15 16 17 35 40 43 51 13 18 14 16 8 -25 l-6
-45 48 -26 c52 -28 63 -43 39 -53 -16 -6 -44 6 -78 34 -16 12 -19 12 -27 0
-15 -23 -12 -53 4 -47 14 5 85 -17 151 -48 31 -14 107 -33 159 -40 15 -2 36
-10 45 -18 9 -8 32 -17 51 -21 43 -7 110 -60 110 -87 0 -11 20 -59 44 -107 24
-48 51 -112 61 -142 10 -30 21 -59 25 -65 11 -15 48 -142 60 -205 16 -84 52
-213 63 -228 18 -22 55 -223 43 -228 -6 -2 -72 -22 -146 -44 l-135 -39 256 0
257 0 -8 32 c-15 60 -57 169 -69 176 -6 4 -15 28 -20 54 -7 37 -6 47 5 47 8 0
14 5 14 12 0 23 16 -6 29 -52 7 -25 17 -54 21 -65 26 -72 43 -126 52 -162 6
-28 15 -43 25 -43 19 0 15 19 -33 151 -19 53 -34 101 -34 107 0 12 -41 113
-76 186 -13 28 -24 57 -24 66 0 8 -15 51 -33 95 -61 145 -104 282 -153 480
-17 70 -107 393 -165 595 -6 19 -14 53 -19 75 -38 173 -53 227 -68 233 -9 3
-10 7 -3 11 12 8 5 50 -31 202 -13 53 -28 94 -33 92 -6 -2 -11 15 -11 39 0 24
-5 63 -12 88 -6 25 -18 79 -26 120 -8 41 -20 102 -26 135 -7 33 -16 83 -21
110 -9 54 -37 153 -63 223 -9 23 -43 84 -76 134 -33 50 -60 98 -60 107 0 41
-23 91 -61 132 -22 24 -51 60 -64 79 -13 19 -44 57 -69 84 -42 45 -50 58 -47
78 0 4 -18 23 -42 43 -47 41 -144 90 -197 100 -19 4 -66 18 -105 30 -137 45
-184 56 -212 53 -17 -3 -22 -6 -13 -9 81 -29 121 -42 155 -50 22 -5 63 -18 90
-29 28 -11 66 -22 85 -24 47 -6 112 -39 87 -44 -26 -5 -17 -20 25 -44 72 -41
253 -235 298 -318 6 -12 9 -33 6 -46 -5 -19 0 -30 23 -50 19 -16 33 -39 37
-62 4 -20 12 -44 18 -52 17 -22 37 -70 28 -70 -8 0 -72 95 -72 107 0 5 -23 42
-57 92 -2 2 -5 2 -8 -1 -3 -3 4 -26 16 -52 11 -26 18 -55 16 -64 -4 -14 -6
-13 -12 6 -9 27 -25 29 -25 2 0 -21 -15 -27 -25 -9 -4 5 0 18 9 28 24 26 21
48 -4 26 -16 -15 -22 -15 -35 -5 -8 7 -15 17 -15 23 0 5 -10 24 -23 41 -22 30
-40 65 -67 134 -17 43 -46 59 -69 38 -10 -9 -21 -13 -25 -9 -4 4 -4 0 0 -10 5
-13 2 -16 -10 -11 -9 3 -16 12 -16 19 0 8 -13 28 -29 46 -33 35 -61 34 -61 -3
-1 -20 -2 -21 -11 -5 -5 9 -16 17 -23 17 -7 0 -21 19 -32 43 -22 48 -47 56
-52 16 -2 -20 -9 -26 -27 -26 -16 0 -25 6 -27 20 -4 27 -25 33 -32 10 -4 -14
-16 -18 -46 -18 -26 0 -40 5 -40 13 0 7 -7 24 -16 37 -13 20 -25 25 -61 25
-31 0 -42 3 -37 12 5 7 0 9 -14 6 -15 -4 -19 -2 -15 8 3 9 -2 14 -16 14 -12 0
-21 -6 -21 -15 0 -24 -18 -17 -22 8 -2 14 -11 23 -25 25 -28 4 -31 32 -3 32
11 0 20 5 20 10 0 6 9 10 20 10 13 0 20 7 20 20 0 17 -5 20 -35 17 -19 -2 -38
-6 -41 -10 -3 -3 -13 -3 -21 0 -8 3 -19 0 -23 -8 -5 -7 -12 -10 -16 -6 -4 4
-2 13 4 19 23 23 14 41 -15 33 -41 -9 -184 -28 -215 -27 -14 1 -32 -5 -38 -13
-7 -8 -19 -15 -26 -15 -8 0 -14 -9 -14 -20 0 -14 -7 -20 -21 -20 -28 0 -61
-19 -54 -31 4 -5 -3 -9 -14 -9 -17 0 -61 -46 -61 -65 0 -4 -14 -27 -32 -51
-20 -28 -37 -43 -46 -39 -15 5 -26 -6 -91 -85 -20 -25 -39 -47 -42 -50 -4 -3
-23 -30 -43 -60 -29 -43 -36 -50 -36 -31 0 12 9 36 20 51 12 16 18 36 14 47
-4 13 -3 14 4 5 7 -11 18 -2 48 35 22 26 55 66 75 88 20 22 56 63 80 91 57 65
184 167 240 192 146 65 250 90 402 94 79 3 99 12 48 23 -39 8 -228 2 -247 -8z
m-530 -358 c-37 -39 -43 -29 -7 15 15 20 30 31 32 25 2 -6 -9 -24 -25 -40z
m56 -58 c0 -5 -6 -14 -14 -20 -12 -10 -13 -8 -9 8 5 21 23 30 23 12z m-130
-32 c-16 -28 -32 -24 -18 6 6 13 15 22 19 19 5 -3 4 -14 -1 -25z m180 -2 c0
-2 -9 -12 -19 -21 -19 -17 -19 -17 -14 3 3 12 12 21 19 21 8 0 14 -2 14 -3z
m100 -3 c0 -13 -22 -44 -31 -44 -6 0 -17 7 -25 15 -14 13 -13 16 8 24 27 11
48 13 48 5z m17 -41 c-8 -10 -20 -30 -26 -46 -11 -28 -31 -37 -31 -14 0 16 60
90 68 83 3 -3 -2 -14 -11 -23z m53 -22 c0 -11 -4 -22 -8 -25 -14 -9 -35 12
-29 28 9 23 37 20 37 -3z m1070 -2 c0 -14 -17 -10 -23 5 -4 10 -1 13 9 9 7 -3
14 -9 14 -14z m-1214 -55 c-4 -9 -9 -15 -11 -12 -3 3 -3 13 1 22 4 9 9 15 11
12 3 -3 3 -13 -1 -22z m-103 1 c-3 -9 -8 -14 -10 -11 -3 3 -2 9 2 15 9 16 15
13 8 -4z m357 -6 c0 -18 -2 -19 -15 -9 -15 12 -12 30 6 30 5 0 9 -10 9 -21z
m-459 -44 c-17 -20 -31 -40 -31 -45 0 -6 -5 -10 -11 -10 -17 0 51 88 70 90 1
0 -11 -16 -28 -35z m1549 -101 c0 -8 -2 -14 -5 -14 -6 0 -35 56 -35 67 1 14
40 -39 40 -53z m-226 20 c3 -8 2 -12 -4 -9 -6 3 -10 10 -10 16 0 14 7 11 14
-7z m-664 -14 c0 -13 -7 -20 -20 -20 -18 0 -19 2 -8 20 7 11 16 20 20 20 5 0
8 -9 8 -20z m525 -21 c9 -17 24 -29 35 -29 11 0 20 -4 20 -10 0 -13 -1 -13
-42 4 -32 14 -64 57 -51 70 9 9 22 -3 38 -35z m-388 -38 c-2 -11 -9 -5 -20 17
-10 18 -15 37 -11 43 8 13 36 -40 31 -60z m-55 3 c-4 -23 -6 -24 -20 -11 -16
16 -9 37 12 37 9 0 12 -9 8 -26z m398 6 c6 -11 17 -20 25 -20 17 0 20 -26 5
-35 -5 -3 -10 -15 -10 -26 0 -21 -10 -25 -27 -8 -9 9 -9 18 0 36 9 21 8 27 -6
34 -18 11 -24 39 -7 39 5 0 14 -9 20 -20z m-161 -120 c-4 -58 -15 -132 -24
-164 -18 -66 -13 -86 8 -35 28 66 36 105 38 177 1 48 7 78 16 88 17 16 27 19
18 4 -4 -6 1 -22 10 -37 9 -14 15 -36 12 -49 -2 -14 1 -28 8 -32 7 -4 28 -29
47 -57 66 -98 119 -165 139 -176 11 -6 19 -13 16 -15 -2 -2 -42 -7 -88 -9
-100 -6 -172 -36 -177 -74 -3 -21 -1 -23 20 -17 12 4 59 10 103 13 63 4 89 1
120 -13 22 -10 44 -17 49 -16 4 2 14 -3 22 -9 10 -8 14 -8 14 0 0 6 5 11 10
11 6 0 10 -9 10 -20 0 -11 5 -20 10 -20 6 0 10 5 10 10 0 12 57 70 68 70 4 0
13 -4 21 -9 12 -8 12 -18 -2 -72 -8 -35 -18 -89 -22 -119 -3 -30 -10 -68 -15
-85 -4 -16 -14 -57 -21 -90 -20 -92 -54 -150 -138 -234 -100 -102 -132 -126
-217 -167 -104 -49 -190 -62 -283 -41 -181 41 -391 187 -455 316 -18 36 -43
98 -56 136 -13 39 -32 90 -43 113 -35 78 -70 242 -51 242 3 0 26 -13 51 -30
24 -16 48 -30 53 -30 4 0 10 -6 13 -12 3 -10 12 -9 38 4 52 26 167 58 208 58
20 0 49 -7 65 -15 18 -10 33 -12 39 -6 14 14 -83 83 -110 78 -13 -2 -23 0 -23
4 0 9 -69 10 -85 1 -13 -8 -40 -13 -107 -19 -54 -4 -58 -3 -58 16 0 12 4 21 9
21 18 0 80 45 81 58 0 6 5 12 11 12 6 0 8 8 4 19 -7 23 13 39 21 17 8 -22 24
-10 24 19 0 18 4 22 20 18 15 -4 20 0 20 16 0 13 4 19 10 16 6 -4 30 15 54 42
33 36 47 45 56 37 11 -11 50 -8 50 4 0 2 -8 11 -17 18 -17 13 -15 17 19 47 20
17 38 43 40 56 2 14 9 26 16 29 10 3 13 -29 14 -155 0 -87 0 -179 1 -205 0
-52 17 -64 37 -28 14 26 30 26 37 0 3 -13 12 -18 26 -16 19 2 46 40 81 111 9
17 26 49 40 72 23 38 38 83 69 200 18 67 24 37 16 -77z m730 84 c25 -42 25
-44 6 -44 -9 0 -15 9 -15 24 0 14 -4 28 -10 31 -10 6 -14 25 -6 25 2 0 13 -16
25 -36z m138 -105 c28 -125 33 -182 18 -187 -5 -1 -15 35 -22 80 -10 71 -23
136 -50 233 -5 19 -4 19 12 4 10 -10 28 -64 42 -130z m-742 70 c6 -19 0 -38
-9 -28 -10 12 -16 49 -7 49 5 0 13 -9 16 -21z m107 -116 c15 -15 28 -35 28
-46 0 -10 16 -38 35 -61 39 -49 48 -81 13 -50 -23 21 -118 161 -118 175 0 15
13 10 42 -18z m-62 2 c0 -8 -2 -15 -4 -15 -2 0 -6 7 -10 15 -3 8 -1 15 4 15 6
0 10 -7 10 -15z m118 -23 c6 -18 -15 -14 -22 4 -4 10 -1 14 6 12 6 -2 14 -10
16 -16z m-878 -17 c-7 -8 -20 -15 -29 -15 -12 1 -11 5 8 21 26 22 41 18 21 -6z
m785 5 c3 -5 1 -10 -4 -10 -6 0 -11 5 -11 10 0 6 2 10 4 10 3 0 8 -4 11 -10z
m-445 -56 c0 -8 -5 -12 -10 -9 -6 4 -8 11 -5 16 9 14 15 11 15 -7z m100 -8 c0
-17 -41 -76 -62 -90 -31 -19 -30 2 3 53 32 49 59 66 59 37z m850 -117 c0 -5
-7 -9 -15 -9 -15 0 -20 12 -9 23 8 8 24 -1 24 -14z m-1420 7 c0 -10 -99 -76
-114 -76 -30 0 -16 18 37 48 47 28 77 39 77 28z m1248 -62 c31 -15 44 -44 20
-44 -13 0 -58 42 -58 54 0 9 3 8 38 -10z m125 -64 c42 0 63 -29 71 -98 8 -74
-5 -130 -38 -163 -13 -13 -63 -44 -110 -68 -47 -24 -93 -55 -101 -68 -33 -49
-48 -12 -19 46 9 18 18 50 21 72 4 25 11 39 20 39 11 0 13 -7 9 -24 -4 -18 -1
-25 14 -29 14 -4 20 0 20 11 0 10 18 34 41 55 22 21 38 44 36 51 -3 7 -1 19 3
27 5 8 4 19 -2 26 -15 19 -28 16 -28 -6 0 -11 -13 -29 -30 -41 -16 -12 -30
-28 -30 -35 0 -8 -4 -17 -10 -20 -21 -13 -10 56 13 79 12 13 31 34 42 47 l20
24 -20 -15 c-11 -8 -30 -23 -42 -34 -31 -27 -39 -14 -25 39 6 24 9 51 6 59 -3
7 -1 17 5 21 6 3 11 -1 11 -10 0 -14 4 -13 27 5 17 13 35 19 48 16 11 -3 32
-6 48 -6z m-1541 -42 c16 -18 35 -42 43 -53 14 -21 31 -105 21 -105 -8 0 -56
50 -56 59 0 4 -12 14 -26 21 -32 18 -45 2 -33 -44 4 -17 13 -57 20 -89 7 -31
18 -62 24 -67 14 -11 45 -3 45 11 0 5 7 9 15 9 8 0 15 4 15 9 0 5 -7 14 -15
21 -16 13 -21 40 -7 40 30 -1 81 -102 74 -148 -5 -37 -27 -47 -80 -37 -54 10
-90 32 -140 84 -56 59 -65 82 -57 156 9 75 40 135 71 135 12 0 27 7 34 15 17
20 18 20 52 -17z m1488 -144 c0 -8 -4 -12 -10 -9 -5 3 -10 10 -10 16 0 5 5 9
10 9 6 0 10 -7 10 -16z m359 -111 c1 -19 -17 -15 -23 5 -3 9 -7 40 -11 67 l-5
50 19 -55 c11 -30 20 -61 20 -67z m11 -39 c0 -8 -4 -12 -10 -9 -5 3 -10 10
-10 16 0 5 5 9 10 9 6 0 10 -7 10 -16z m-1810 -188 c0 -15 -18 -31 -26 -23 -7
7 7 37 17 37 5 0 9 -6 9 -14z m976 -271 c-15 -42 -26 -55 -26 -29 0 34 12 64
25 64 10 0 10 -7 1 -35z m-516 21 c0 -15 -14 -35 -21 -30 -15 9 -10 34 6 34 8
0 15 -2 15 -4z m60 -110 c0 -16 -18 -31 -27 -22 -8 8 5 36 17 36 5 0 10 -6 10
-14z m390 -12 c0 -14 -99 -64 -127 -64 -15 0 38 50 53 50 5 0 20 9 34 19 26
21 40 19 40 -5z m120 1 c42 -26 70 -76 70 -124 0 -35 34 -146 55 -177 12 -19
13 -29 4 -46 -9 -17 -8 -28 6 -54 16 -30 16 -33 -3 -75 -20 -44 -20 -44 -21
-13 -1 42 -26 100 -46 108 -55 21 -130 -1 -208 -61 l-58 -45 -20 21 c-11 11
-24 21 -30 21 -6 0 -6 4 1 13 5 6 25 30 42 51 18 22 51 60 74 85 51 57 124
157 124 170 0 5 -9 7 -20 4 -29 -8 -25 16 5 27 14 5 25 11 25 14 0 17 -34 78
-45 83 -17 6 -20 23 -5 23 6 0 28 -11 50 -25z m-385 5 c3 -5 -3 -10 -15 -10
-12 0 -18 5 -15 10 3 6 10 10 15 10 5 0 12 -4 15 -10z m258 -127 c6 -87 9 -80
-97 -230 l-49 -70 -45 8 c-24 5 -48 6 -53 3 -5 -3 -9 -1 -9 4 0 5 -10 20 -21
33 -31 34 -124 160 -136 184 -6 11 -8 44 -6 73 6 59 11 61 85 38 27 -8 52 -10
59 -5 22 14 59 10 65 -6 10 -26 148 -2 174 31 22 25 27 15 33 -63z m1147 -13
c0 -5 -2 -10 -4 -10 -3 0 -8 5 -11 10 -3 6 -1 10 4 10 6 0 11 -4 11 -10z
m-1920 -71 c0 -6 -4 -7 -10 -4 -5 3 -10 11 -10 16 0 6 5 7 10 4 6 -3 10 -11
10 -16z m1225 7 c19 -8 35 -20 35 -27 0 -7 -7 -8 -17 -4 -10 4 -33 7 -50 6
-22 -1 -33 3 -33 12 0 30 16 33 65 13z m-1225 -46 c0 -6 -34 -27 -75 -47 -41
-19 -78 -39 -81 -44 -9 -14 -24 -10 -24 6 0 9 8 19 18 22 9 4 19 9 22 12 3 4
16 12 30 19 14 7 36 19 50 27 29 17 60 19 60 5z m1060 -10 c0 -5 -4 -10 -10
-10 -5 0 -10 5 -10 10 0 6 5 10 10 10 6 0 10 -4 10 -10z m910 -80 c-1 -3 -7 4
-15 14 -8 11 -15 31 -15 45 1 22 3 19 15 -14 8 -22 15 -42 15 -45z m-1955 48
c-4 -13 -12 -27 -18 -33 -7 -7 -8 -4 -3 8 3 10 6 25 6 33 0 8 5 14 11 14 6 0
8 -9 4 -22z m1137 5 c25 -23 24 -46 -2 -38 -12 4 -27 1 -35 -5 -12 -10 -15 -9
-15 4 0 20 18 56 27 56 4 0 15 -7 25 -17z m388 -48 c7 -9 21 -14 31 -13 9 2
29 -8 43 -21 27 -26 33 -41 16 -41 -17 0 -120 69 -120 80 0 15 16 12 30 -5z
m450 -53 c0 -15 -2 -15 -10 -2 -13 20 -13 33 0 25 6 -3 10 -14 10 -23z m-469
-14 c34 -17 40 -23 24 -26 -20 -5 -85 25 -85 40 0 13 13 10 61 -14z m-2375
-44 c-3 -9 -6 -22 -6 -30 0 -9 -4 -13 -9 -10 -11 7 -2 56 11 56 6 0 7 -7 4
-16z m1454 -10 c0 -4 -7 -3 -16 0 -9 4 -23 1 -31 -5 -7 -7 -17 -9 -21 -5 -14
14 29 36 49 25 11 -5 19 -12 19 -15z m301 -9 c0 -14 -23 -17 -40 -6 -20 13 -4
31 20 23 11 -5 20 -12 20 -17z m834 15 c3 -5 -1 -10 -9 -10 -9 0 -16 5 -16 10
0 6 4 10 9 10 6 0 13 -4 16 -10z m261 -46 c15 -53 13 -78 -5 -58 -10 10 -26
114 -17 114 3 0 13 -25 22 -56z m-1582 25 c17 -15 -3 -23 -29 -11 -32 15 -34
36 -2 27 12 -4 26 -11 31 -16z m106 -35 c0 -8 -4 -12 -10 -9 -5 3 -10 10 -10
16 0 5 5 9 10 9 6 0 10 -7 10 -16z m130 -6 c0 -24 -12 -58 -20 -58 -6 0 -30
52 -30 66 0 2 11 4 25 4 14 0 25 -6 25 -12z m240 -8 c0 -5 -27 -23 -60 -40
-45 -23 -58 -34 -53 -46 5 -14 1 -15 -28 -9 -67 14 -64 20 41 71 67 34 100 41
100 24z m-650 -50 c0 -5 -2 -10 -4 -10 -3 0 -8 5 -11 10 -3 6 -1 10 4 10 6 0
11 -4 11 -10z m270 -30 c0 -5 -7 -10 -15 -10 -8 0 -15 5 -15 10 0 6 7 10 15
10 8 0 15 -4 15 -10z m-260 -27 c0 -19 -3 -24 -10 -17 -6 6 -8 18 -4 27 9 24
14 21 14 -10z m615 -23 c3 -5 -1 -10 -9 -10 -9 0 -16 5 -16 10 0 6 4 10 9 10
6 0 13 -4 16 -10z m-1673 -105 c-2 -14 -8 -25 -13 -25 -10 0 -11 12 -3 34 10
25 22 19 16 -9z m2918 -78 c0 -18 -2 -19 -10 -7 -13 20 -13 43 0 35 6 -3 10
-16 10 -28z m35 -97 c10 -30 26 -77 36 -104 20 -50 25 -96 11 -96 -14 0 -82
202 -82 247 0 37 14 19 35 -47z m-705 -111 c0 -11 -4 -17 -10 -14 -5 3 -10 15
-10 26 0 11 5 17 10 14 6 -3 10 -15 10 -26z m-2355 -89 c3 -5 1 -10 -4 -10 -6
0 -11 5 -11 10 0 6 2 10 4 10 3 0 8 -4 11 -10z m-45 -109 c0 -6 -4 -13 -10
-16 -5 -3 -10 1 -10 9 0 9 5 16 10 16 6 0 10 -4 10 -9z m2460 -207 c0 -30 -4
-54 -8 -54 -5 0 -9 27 -9 60 -1 33 3 57 8 54 5 -3 9 -30 9 -60z m684 -42 c8
-15 18 -45 21 -66 7 -34 5 -38 -11 -34 -12 2 -21 15 -25 38 -3 19 -10 47 -14
63 -10 36 10 36 29 -1z"/>
<path d="M2267 2732 c-25 -28 -20 -34 13 -17 17 9 30 20 30 25 0 16 -26 11
-43 -8z"/>
<path d="M1750 2732 c0 -5 12 -14 26 -21 20 -9 30 -9 40 0 8 7 12 14 9 17 -9
10 -75 13 -75 4z"/>
<path d="M2047 2424 c-8 -8 1 -24 14 -24 5 0 9 7 9 15 0 15 -12 20 -23 9z"/>
<path d="M1561 2369 c-18 -22 -31 -42 -28 -45 2 -3 16 10 31 28 14 18 31 39
37 46 5 6 6 12 1 12 -5 0 -23 -18 -41 -41z"/>
<path d="M2529 2384 c-13 -15 -18 -25 -10 -22 13 4 49 48 39 48 -2 0 -15 -12
-29 -26z"/>
<path d="M2410 2392 c0 -4 -11 -20 -25 -35 -14 -15 -21 -27 -16 -27 12 0 61
51 61 62 0 5 -4 8 -10 8 -5 0 -10 -3 -10 -8z"/>
<path d="M1606 2343 c-6 -14 -5 -15 5 -6 7 7 10 15 7 18 -3 3 -9 -2 -12 -12z"/>
<path d="M2415 2329 c-4 -6 -5 -13 -2 -16 7 -7 27 6 27 18 0 12 -17 12 -25 -2z"/>
<path d="M2262 2175 c-7 -8 -9 -15 -4 -15 5 0 15 7 22 15 16 19 -1 19 -18 0z"/>
<path d="M1875 2151 c11 -19 112 -58 160 -63 48 -5 49 -5 20 8 -16 7 -38 13
-47 14 -9 0 -39 11 -66 25 -52 26 -77 32 -67 16z"/>
<path d="M2110 2100 l-25 -8 25 -1 c14 0 32 4 40 9 13 9 13 10 0 9 -8 -1 -26
-5 -40 -9z"/>
<path d="M1925 3760 c-3 -5 1 -10 9 -10 9 0 16 5 16 10 0 6 -4 10 -9 10 -6 0
-13 -4 -16 -10z"/>
<path d="M2067 3699 c7 -7 15 -10 18 -7 3 3 -2 9 -12 12 -14 6 -15 5 -6 -5z"/>
<path d="M2490 3695 c0 -8 7 -15 15 -15 8 0 15 7 15 15 0 8 -7 15 -15 15 -8 0
-15 -7 -15 -15z"/>
<path d="M2440 3591 c0 -6 5 -13 10 -16 6 -3 10 1 10 9 0 9 -4 16 -10 16 -5 0
-10 -4 -10 -9z"/>
<path d="M2206 3571 c-4 -5 -2 -12 3 -15 5 -4 12 -2 15 3 4 5 2 12 -3 15 -5 4
-12 2 -15 -3z"/>
<path d="M2575 3510 c3 -5 8 -10 11 -10 2 0 4 5 4 10 0 6 -5 10 -11 10 -5 0
-7 -4 -4 -10z"/>
<path d="M2744 3357 c-8 -9 -5 -18 12 -34 13 -12 24 -34 24 -48 0 -14 3 -24 8
-24 25 4 34 -3 30 -25 -4 -18 -1 -22 13 -19 17 5 17 9 -6 54 -29 57 -30 60
-10 53 18 -7 19 0 5 27 -13 23 -30 25 -30 3 0 -13 -3 -12 -17 4 -14 16 -21 18
-29 9z"/>
<path d="M820 2255 c0 -8 5 -15 10 -15 6 0 10 7 10 15 0 8 -4 15 -10 15 -5 0
-10 -7 -10 -15z"/>
<path d="M807 2198 c-6 -21 -2 -36 7 -27 10 11 16 49 8 49 -5 0 -12 -10 -15
-22z"/>
<path d="M3160 1022 c0 -10 -4 -22 -9 -27 -13 -14 -31 -85 -21 -85 4 0 15 22
23 48 9 26 19 56 23 65 3 10 1 17 -5 17 -6 0 -11 -8 -11 -18z"/>
<path d="M2954 966 c-3 -9 1 -29 9 -45 10 -21 12 -32 4 -40 -11 -11 6 -70 58
-206 23 -61 32 -97 59 -260 19 -108 27 -199 30 -320 l2 -90 32 -3 c28 -3 32 0
32 20 1 120 4 132 35 141 17 5 37 13 45 17 9 4 31 11 49 15 50 11 142 55 136
66 -4 5 -22 2 -43 -7 -45 -20 -134 -44 -184 -51 -28 -4 -38 -1 -39 8 0 8 -4
37 -8 64 -5 28 -5 57 0 66 5 10 4 20 -3 27 -8 8 -8 15 0 25 12 14 5 57 -10 57
-5 0 -6 -5 -2 -12 4 -6 3 -8 -3 -5 -12 8 -22 50 -28 123 -4 50 -2 53 36 89 22
20 37 40 34 43 -4 4 -12 -1 -19 -11 -7 -9 -17 -17 -21 -17 -5 0 -16 -7 -26
-16 -16 -15 -19 -12 -38 31 -28 63 -26 103 5 159 31 55 27 85 -4 32 -12 -20
-22 -41 -22 -47 0 -5 -4 -9 -10 -9 -5 0 -14 19 -21 43 -20 75 -31 96 -55 112
-21 14 -25 14 -30 1z"/>
<path d="M2191 883 c1 -67 13 -108 23 -82 11 27 2 132 -11 137 -10 3 -13 -12
-12 -55z"/>
<path d="M1194 868 c-6 -7 -23 -53 -38 -103 -16 -49 -32 -93 -35 -97 -17 -20
-131 111 -131 150 0 31 -12 33 -27 5 -12 -23 -11 -29 5 -47 30 -33 122 -171
122 -183 0 -15 -30 -73 -38 -73 -4 0 -8 -21 -9 -47 -1 -25 -7 -51 -13 -57 -12
-12 -13 -63 -1 -68 5 -1 6 -18 4 -35 -3 -18 -9 -31 -13 -28 -4 2 -5 17 -2 32
2 16 2 25 -2 22 -11 -10 -16 -108 -5 -114 5 -4 9 -39 9 -78 0 -50 -3 -67 -10
-57 -5 8 -10 29 -10 45 0 29 -3 31 -78 53 -42 13 -108 27 -145 33 -38 5 -77
14 -87 19 -27 14 -60 12 -60 -3 0 -8 10 -18 23 -24 93 -45 156 -70 162 -65 4
4 42 7 86 7 56 0 80 -4 84 -13 3 -8 5 -43 5 -78 l0 -64 39 0 38 0 -4 113 c-5
131 12 226 97 522 46 163 61 228 52 237 -5 5 -13 4 -18 -4z"/>
<path d="M2112 868 c-6 -7 -12 -31 -14 -53 -3 -38 -2 -40 29 -43 27 -3 33 1
39 22 13 53 -26 107 -54 74z"/>
<path d="M2227 713 c-7 -93 -6 -121 8 -249 14 -119 13 -143 -4 -188 -7 -16 -9
-42 -5 -58 7 -34 -5 -148 -15 -148 -15 0 -31 79 -25 118 6 38 -7 64 -21 42
-14 -23 -26 -8 -19 25 5 28 3 35 -9 35 -42 0 -64 -101 -29 -133 10 -10 26 -17
35 -17 9 0 17 -4 17 -9 0 -5 3 -18 6 -28 5 -13 2 -12 -10 5 -21 27 -39 20 -26
-11 5 -12 11 -39 15 -59 6 -37 7 -38 47 -38 47 0 72 22 82 73 8 42 90 150 119
158 33 8 70 -25 82 -74 11 -44 45 -66 45 -30 0 24 18 43 35 37 7 -3 25 10 39
29 19 25 32 33 49 30 13 -3 29 3 39 14 38 39 70 84 65 90 -4 3 -26 0 -49 -6
-47 -13 -82 -6 -112 24 -15 15 -15 19 1 45 9 16 27 31 40 35 13 3 23 9 23 14
0 17 -43 19 -82 4 -36 -14 -40 -14 -58 2 -36 33 -53 84 -46 142 5 42 3 53 -8
53 -14 0 -28 -33 -41 -98 -6 -31 -9 -33 -36 -27 -23 5 -29 3 -29 -9 0 -9 -11
-21 -25 -26 -14 -5 -28 -17 -31 -25 -9 -22 24 -55 55 -55 l26 1 -29 23 c-18
15 -24 26 -17 30 6 4 15 5 19 2 5 -3 16 4 26 16 13 14 21 17 28 10 7 -7 17 -8
28 -2 12 7 23 0 45 -28 17 -20 29 -43 27 -49 -4 -18 19 -16 45 2 25 17 41 4
18 -15 -8 -7 -15 -19 -15 -26 0 -17 64 -60 103 -69 44 -11 33 -30 -15 -26 -24
3 -58 -17 -58 -33 0 -8 -8 -16 -17 -20 -10 -3 -23 -9 -30 -12 -7 -3 -18 9 -27
30 -8 20 -22 36 -30 36 -30 0 -55 39 -49 76 6 34 -4 43 -23 24 -6 -6 -28 -11
-50 -13 -33 -2 -39 1 -36 17 4 24 -22 16 -27 -9 -2 -12 8 -28 25 -41 l28 -23
-19 -35 c-19 -35 -53 -52 -41 -20 3 8 2 23 -3 33 -5 9 -12 60 -15 111 -25 418
-29 453 -39 323z m173 -383 c0 -5 -4 -10 -10 -10 -5 0 -10 5 -10 10 0 6 5 10
10 10 6 0 10 -4 10 -10z m-206 -293 c5 -21 3 -28 -6 -25 -7 3 -14 20 -16 39
-4 40 12 30 22 -14z"/>
<path d="M3200 585 c-15 -8 -19 -14 -10 -14 18 -1 46 16 40 23 -3 2 -16 -2
-30 -9z"/>
<path d="M924 555 c24 -18 39 -20 34 -2 -3 6 -15 13 -29 15 -23 2 -23 2 -5
-13z"/>
<path d="M2123 563 c-18 -6 -16 -23 2 -23 18 0 20 -16 4 -26 -6 -3 -16 0 -21
7 -8 11 -8 10 -4 -4 3 -10 6 -25 6 -34 0 -9 8 -13 23 -11 17 2 23 10 25 39 3
37 -13 60 -35 52z"/>
<path d="M992 529 c2 -7 10 -15 17 -17 8 -3 12 1 9 9 -2 7 -10 15 -17 17 -8 3
-12 -1 -9 -9z"/>
<path d="M2037 421 c-4 -17 -11 -19 -47 -14 -31 4 -41 3 -36 -5 4 -7 14 -12
22 -12 19 0 18 -7 -6 -33 -15 -15 -19 -29 -15 -49 5 -19 3 -28 -6 -28 -8 0
-10 -13 -6 -45 6 -40 4 -45 -12 -45 -11 0 -32 7 -48 14 -15 8 -36 17 -46 20
-28 9 -32 35 -8 52 11 8 21 23 21 33 0 18 40 60 75 79 20 11 20 11 -2 12 -31
0 -81 -46 -91 -83 -11 -42 -31 -40 -60 3 -39 58 -81 102 -92 95 -5 -3 -10 -17
-10 -30 0 -26 -15 -41 -25 -25 -3 5 -12 10 -20 10 -20 0 7 -84 29 -88 19 -4
20 -14 5 -29 -17 -17 -3 -43 23 -44 16 0 39 -21 78 -69 35 -45 64 -71 81 -75
20 -5 28 -14 33 -36 4 -23 11 -29 31 -29 30 0 31 7 5 40 -11 14 -20 30 -20 37
0 20 28 3 34 -20 5 -21 6 -21 23 -4 21 20 9 50 -23 56 -10 1 -26 10 -36 18
-20 18 -36 -1 -18 -22 8 -10 9 -15 2 -15 -6 0 -20 12 -31 28 -72 97 -97 122
-116 118 -11 -3 -26 -1 -34 3 -11 7 -8 13 13 26 26 17 28 17 54 -2 15 -11 42
-40 61 -65 30 -40 37 -45 53 -34 16 9 22 8 32 -7 16 -21 23 -21 43 -2 8 8 19
12 25 9 7 -4 8 10 3 45 -6 43 -4 51 9 51 21 0 20 29 -1 53 -17 18 -17 20 2 33
11 8 30 17 43 21 17 4 22 12 22 39 0 38 -5 44 -13 15z m-307 -76 c13 -14 22
-26 19 -27 -54 -33 -66 -35 -74 -9 -6 18 12 61 26 61 3 0 16 -11 29 -25z"/>
<path d="M2043 325 c0 -22 2 -30 4 -17 2 12 2 30 0 40 -3 9 -5 -1 -4 -23z"/>
<path d="M2498 353 c-21 -5 -24 -33 -4 -33 16 0 40 27 29 32 -4 3 -16 3 -25 1z"/>
<path d="M2009 248 c-5 -9 -10 -66 -15 -151 -6 -93 -5 -97 15 -97 19 0 20 5
19 125 0 69 -5 125 -9 125 -5 0 -10 -1 -10 -2z"/>
<path d="M1942 18 c2 -6 10 -14 16 -16 7 -2 10 2 6 12 -7 18 -28 22 -22 4z"/>
<path d="M2627 23 c-4 -3 -7 -11 -7 -17 0 -6 5 -5 12 2 6 6 9 14 7 17 -3 3 -9
2 -12 -2z"/>
<path d="M2338 3 c7 -3 16 -2 19 1 4 3 -2 6 -13 5 -11 0 -14 -3 -6 -6z"/>
</g>
</svg>
